<svg width="330" height="330" viewBox="0 0 330 330" fill="none" xmlns="http://www.w3.org/2000/svg">
<rect width="330" height="330" rx="165" fill="#150036"/>
<path d="M166.575 152.688V163.952H148.783V170.224H161.583V180.912H148.783V198H134.575V152.688H166.575ZM188.54 198.448C184.913 198.448 181.649 197.701 178.748 196.208C175.846 194.715 173.564 192.581 171.9 189.808C170.278 186.992 169.468 183.707 169.468 179.952C169.468 176.197 170.278 172.933 171.9 170.16C173.564 167.344 175.846 165.189 178.748 163.696C181.649 162.203 184.913 161.456 188.54 161.456C192.166 161.456 195.43 162.203 198.332 163.696C201.233 165.189 203.494 167.344 205.116 170.16C206.78 172.933 207.612 176.197 207.612 179.952C207.612 183.707 206.78 186.992 205.116 189.808C203.494 192.581 201.233 194.715 198.332 196.208C195.43 197.701 192.166 198.448 188.54 198.448ZM188.54 186.16C189.862 186.16 190.972 185.648 191.868 184.624C192.764 183.557 193.212 182 193.212 179.952C193.212 177.904 192.764 176.368 191.868 175.344C190.972 174.277 189.862 173.744 188.54 173.744C187.217 173.744 186.108 174.277 185.212 175.344C184.316 176.368 183.868 177.904 183.868 179.952C183.868 182 184.294 183.557 185.148 184.624C186.044 185.648 187.174 186.16 188.54 186.16ZM226.283 168.56C227.734 166.469 229.504 164.805 231.595 163.568C233.686 162.288 235.862 161.648 238.123 161.648V176.816H234.091C231.403 176.816 229.419 177.285 228.139 178.224C226.902 179.163 226.283 180.827 226.283 183.216V198H212.075V161.904H226.283V168.56ZM290.142 161.648C294.75 161.648 298.313 163.035 300.83 165.808C303.39 168.581 304.67 172.336 304.67 177.072V198H290.526V178.864C290.526 177.328 290.057 176.133 289.118 175.28C288.222 174.384 287.006 173.936 285.47 173.936C283.891 173.936 282.654 174.384 281.758 175.28C280.862 176.133 280.414 177.328 280.414 178.864V198H266.27V178.864C266.27 177.328 265.801 176.133 264.862 175.28C263.966 174.384 262.75 173.936 261.214 173.936C259.635 173.936 258.398 174.384 257.502 175.28C256.606 176.133 256.158 177.328 256.158 178.864V198H241.95V161.904H256.158V166.768C257.182 165.232 258.569 163.995 260.318 163.056C262.11 162.117 264.201 161.648 266.59 161.648C269.193 161.648 271.497 162.224 273.502 163.376C275.507 164.485 277.107 166.064 278.302 168.112C279.625 166.235 281.31 164.699 283.358 163.504C285.406 162.267 287.667 161.648 290.142 161.648Z" fill="white"/>
<path d="M39.4392 150L34.1192 139.84H34.0792V150H25.1992V121.68H38.3992C40.6926 121.68 42.6526 122.093 44.2792 122.92C45.9059 123.72 47.1192 124.827 47.9192 126.24C48.7459 127.627 49.1592 129.2 49.1592 130.96C49.1592 132.853 48.6259 134.533 47.5592 136C46.5192 137.467 45.0126 138.52 43.0392 139.16L49.1992 150H39.4392ZM34.0792 133.92H37.5992C38.4526 133.92 39.0926 133.733 39.5192 133.36C39.9459 132.96 40.1592 132.347 40.1592 131.52C40.1592 130.773 39.9326 130.187 39.4792 129.76C39.0526 129.333 38.4259 129.12 37.5992 129.12H34.0792V133.92ZM73.8361 138.52C73.8361 139.133 73.7961 139.72 73.7161 140.28H59.4361C59.5694 142.227 60.3828 143.2 61.8761 143.2C62.8361 143.2 63.5294 142.76 63.9561 141.88H73.3561C73.0361 143.48 72.3561 144.92 71.3161 146.2C70.3028 147.453 69.0094 148.453 67.4361 149.2C65.8894 149.92 64.1828 150.28 62.3161 150.28C60.0761 150.28 58.0761 149.813 56.3161 148.88C54.5828 147.947 53.2228 146.613 52.2361 144.88C51.2761 143.12 50.7961 141.067 50.7961 138.72C50.7961 136.373 51.2761 134.333 52.2361 132.6C53.2228 130.84 54.5828 129.493 56.3161 128.56C58.0761 127.627 60.0761 127.16 62.3161 127.16C64.5561 127.16 66.5428 127.627 68.2761 128.56C70.0361 129.467 71.3961 130.773 72.3561 132.48C73.3428 134.187 73.8361 136.2 73.8361 138.52ZM64.8361 136.4C64.8361 135.653 64.5961 135.093 64.1161 134.72C63.6361 134.32 63.0361 134.12 62.3161 134.12C60.7428 134.12 59.8228 134.88 59.5561 136.4H64.8361ZM84.7645 127.16C86.2312 127.16 87.4979 127.467 88.5645 128.08C89.6312 128.667 90.4445 129.48 91.0045 130.52V127.44H99.8445V149.6C99.8445 151.707 99.4579 153.627 98.6845 155.36C97.9112 157.093 96.6579 158.48 94.9245 159.52C93.2179 160.56 91.0179 161.08 88.3245 161.08C84.6979 161.08 81.8179 160.227 79.6845 158.52C77.5779 156.84 76.3779 154.547 76.0845 151.64H84.8045C85.0445 152.813 86.0045 153.4 87.6845 153.4C88.7245 153.4 89.5379 153.133 90.1245 152.6C90.7112 152.067 91.0045 151.067 91.0045 149.6V146.92C90.4445 147.96 89.6312 148.787 88.5645 149.4C87.4979 149.987 86.2312 150.28 84.7645 150.28C83.0045 150.28 81.4179 149.827 80.0045 148.92C78.5912 147.987 77.4712 146.653 76.6445 144.92C75.8445 143.16 75.4445 141.093 75.4445 138.72C75.4445 136.347 75.8445 134.293 76.6445 132.56C77.4712 130.8 78.5912 129.467 80.0045 128.56C81.4179 127.627 83.0045 127.16 84.7645 127.16ZM91.0045 138.72C91.0045 137.52 90.6979 136.587 90.0845 135.92C89.4712 135.253 88.6845 134.92 87.7245 134.92C86.7645 134.92 85.9779 135.253 85.3645 135.92C84.7512 136.587 84.4445 137.52 84.4445 138.72C84.4445 139.92 84.7512 140.853 85.3645 141.52C85.9779 142.187 86.7645 142.52 87.7245 142.52C88.6845 142.52 89.4712 142.187 90.0845 141.52C90.6979 140.853 91.0045 139.92 91.0045 138.72ZM108.312 125.64C106.765 125.64 105.525 125.227 104.592 124.4C103.659 123.573 103.192 122.533 103.192 121.28C103.192 120 103.659 118.947 104.592 118.12C105.525 117.267 106.765 116.84 108.312 116.84C109.832 116.84 111.059 117.267 111.992 118.12C112.925 118.947 113.392 120 113.392 121.28C113.392 122.533 112.925 123.573 111.992 124.4C111.059 125.227 109.832 125.64 108.312 125.64ZM112.712 127.44V150H103.832V127.44H112.712ZM126.763 150.28C124.629 150.28 122.736 149.933 121.083 149.24C119.456 148.547 118.163 147.587 117.203 146.36C116.243 145.133 115.696 143.747 115.563 142.2H124.083C124.189 142.867 124.469 143.36 124.923 143.68C125.403 144 126.003 144.16 126.723 144.16C127.176 144.16 127.536 144.067 127.803 143.88C128.069 143.667 128.203 143.413 128.203 143.12C128.203 142.613 127.923 142.253 127.363 142.04C126.803 141.827 125.856 141.587 124.523 141.32C122.896 141 121.549 140.653 120.483 140.28C119.443 139.907 118.523 139.267 117.723 138.36C116.949 137.453 116.563 136.2 116.563 134.6C116.563 133.213 116.923 131.96 117.643 130.84C118.389 129.693 119.483 128.8 120.923 128.16C122.363 127.493 124.109 127.16 126.163 127.16C129.203 127.16 131.576 127.907 133.283 129.4C135.016 130.893 136.056 132.84 136.403 135.24H128.523C128.389 134.627 128.109 134.16 127.683 133.84C127.256 133.493 126.683 133.32 125.963 133.32C125.509 133.32 125.163 133.413 124.923 133.6C124.683 133.76 124.563 134.013 124.563 134.36C124.563 134.813 124.843 135.16 125.403 135.4C125.963 135.613 126.856 135.84 128.083 136.08C129.709 136.4 131.083 136.76 132.203 137.16C133.323 137.56 134.296 138.253 135.123 139.24C135.949 140.2 136.363 141.533 136.363 143.24C136.363 144.573 135.976 145.773 135.203 146.84C134.429 147.907 133.309 148.747 131.843 149.36C130.403 149.973 128.709 150.28 126.763 150.28ZM153.927 142.44V150H150.567C144.38 150 141.287 146.92 141.287 140.76V134.84H138.487V127.44H141.287V122H150.167V127.44H153.847V134.84H150.167V140.92C150.167 141.453 150.287 141.84 150.527 142.08C150.793 142.32 151.22 142.44 151.807 142.44H153.927ZM166.189 131.6C167.095 130.293 168.202 129.253 169.509 128.48C170.815 127.68 172.175 127.28 173.589 127.28V136.76H171.069C169.389 136.76 168.149 137.053 167.349 137.64C166.575 138.227 166.189 139.267 166.189 140.76V150H157.309V127.44H166.189V131.6ZM174.78 138.72C174.78 136.347 175.18 134.293 175.98 132.56C176.807 130.8 177.927 129.467 179.34 128.56C180.754 127.627 182.34 127.16 184.1 127.16C185.567 127.16 186.834 127.467 187.9 128.08C188.967 128.667 189.78 129.48 190.34 130.52V127.44H199.18V150H190.34V146.92C189.78 147.96 188.967 148.787 187.9 149.4C186.834 149.987 185.567 150.28 184.1 150.28C182.34 150.28 180.754 149.827 179.34 148.92C177.927 147.987 176.807 146.653 175.98 144.92C175.18 143.16 174.78 141.093 174.78 138.72ZM190.34 138.72C190.34 137.52 190.034 136.587 189.42 135.92C188.807 135.253 188.02 134.92 187.06 134.92C186.1 134.92 185.314 135.253 184.7 135.92C184.087 136.587 183.78 137.52 183.78 138.72C183.78 139.92 184.087 140.853 184.7 141.52C185.314 142.187 186.1 142.52 187.06 142.52C188.02 142.52 188.807 142.187 189.42 141.52C190.034 140.853 190.34 139.92 190.34 138.72ZM217.208 142.44V150H213.848C207.661 150 204.568 146.92 204.568 140.76V134.84H201.768V127.44H204.568V122H213.448V127.44H217.128V134.84H213.448V140.92C213.448 141.453 213.568 141.84 213.808 142.08C214.075 142.32 214.501 142.44 215.088 142.44H217.208ZM225.07 125.64C223.523 125.64 222.283 125.227 221.35 124.4C220.417 123.573 219.95 122.533 219.95 121.28C219.95 120 220.417 118.947 221.35 118.12C222.283 117.267 223.523 116.84 225.07 116.84C226.59 116.84 227.817 117.267 228.75 118.12C229.683 118.947 230.15 120 230.15 121.28C230.15 122.533 229.683 123.573 228.75 124.4C227.817 125.227 226.59 125.64 225.07 125.64ZM229.47 127.44V150H220.59V127.44H229.47ZM244.2 150.28C241.934 150.28 239.894 149.813 238.08 148.88C236.267 147.947 234.84 146.613 233.8 144.88C232.787 143.12 232.28 141.067 232.28 138.72C232.28 136.373 232.787 134.333 233.8 132.6C234.84 130.84 236.267 129.493 238.08 128.56C239.894 127.627 241.934 127.16 244.2 127.16C246.467 127.16 248.507 127.627 250.32 128.56C252.134 129.493 253.547 130.84 254.56 132.6C255.6 134.333 256.12 136.373 256.12 138.72C256.12 141.067 255.6 143.12 254.56 144.88C253.547 146.613 252.134 147.947 250.32 148.88C248.507 149.813 246.467 150.28 244.2 150.28ZM244.2 142.6C245.027 142.6 245.72 142.28 246.28 141.64C246.84 140.973 247.12 140 247.12 138.72C247.12 137.44 246.84 136.48 246.28 135.84C245.72 135.173 245.027 134.84 244.2 134.84C243.374 134.84 242.68 135.173 242.12 135.84C241.56 136.48 241.28 137.44 241.28 138.72C241.28 140 241.547 140.973 242.08 141.64C242.64 142.28 243.347 142.6 244.2 142.6ZM274.71 127.28C277.297 127.28 279.31 128.147 280.75 129.88C282.217 131.613 282.95 133.96 282.95 136.92V150H274.11V138.04C274.11 136.973 273.817 136.133 273.23 135.52C272.67 134.88 271.91 134.56 270.95 134.56C269.963 134.56 269.19 134.88 268.63 135.52C268.07 136.133 267.79 136.973 267.79 138.04V150H258.91V127.44H267.79V130.88C268.483 129.813 269.403 128.947 270.55 128.28C271.723 127.613 273.11 127.28 274.71 127.28Z" fill="white"/>
</svg>
